<?xml version="1.0" encoding="iso-8859-1"?>
<!-- Generator: Adobe Illustrator 19.0.0, SVG Export Plug-In . SVG Version: 6.00 Build 0)  -->
<svg version="1.1" id="Capa_1" xmlns="http://www.w3.org/2000/svg" xmlns:xlink="http://www.w3.org/1999/xlink" x="0px" y="0px"
	 viewBox="0 0 511.878 511.878" style="enable-background:new 0 0 511.878 511.878;" xml:space="preserve">
<g style="opacity:0.5;">
	<path style="fill:#FFCE54;" d="M279.933,455.892c0,13.254-10.739,23.994-23.994,23.994c-13.255,0-23.994-10.74-23.994-23.994
		c0-13.255,10.739-23.995,23.994-23.995C269.194,431.897,279.933,442.637,279.933,455.892z"/>
</g>
<path style="fill:#CCD1D9;" d="M215.949,399.905c2.718,0,5.197,0.719,6.639,1.758c0.879,0.64,1.359,1.444,1.359,2.241
	c0-2.241,3.601-3.999,7.998-3.999s7.998,1.758,7.998,3.999c0-2.241,3.601-3.999,7.998-3.999s7.998,1.758,7.998,3.999
	c0-2.241,3.601-3.999,7.998-3.999s7.998,1.758,7.998,3.999c0-2.241,3.602-3.999,7.998-3.999c4.397,0,7.998,1.758,7.998,3.999
	c0-2.241,3.602-3.999,7.998-3.999c4.398,0,7.998,1.758,7.998,3.999l-23.994,23.994h-47.988l-23.994-23.994
	C207.951,401.663,211.551,399.905,215.949,399.905z"/>
<g style="opacity:0.7;">
	<polygon style="fill:#FFFFFF;" points="207.951,403.904 231.945,427.898 239.943,427.898 212.766,400.249 	"/>
</g>
<g style="opacity:0.2;">
	<polygon points="303.927,403.904 279.933,427.898 271.935,427.898 299.117,400.249 	"/>
</g>
<path style="fill:#FFD2A6;" d="M231.945,475.887h47.988v23.994c0,4.397-3.601,7.998-7.998,7.998h-31.992
	c-4.397,0-7.998-3.601-7.998-7.998V475.887z"/>
<g style="opacity:0.5;">
	<path style="fill:#FFFFFF;" d="M239.943,499.881v-23.994h-7.998v23.994c0,4.397,3.601,7.998,7.998,7.998h7.998
		C243.543,507.879,239.943,504.279,239.943,499.881z"/>
</g>
<g style="opacity:0.2;">
	<path d="M271.935,499.881v-23.994h7.998v23.994c0,4.397-3.601,7.998-7.998,7.998h-7.998
		C268.335,507.879,271.935,504.279,271.935,499.881z"/>
</g>
<path style="fill:#FFCE54;" d="M255.939,443.894c4.397,0,7.998,11.6,7.998,15.996c0,4.398-3.601,7.998-7.998,7.998
	c-4.397,0-7.998-3.6-7.998-7.998C247.941,455.494,251.542,443.894,255.939,443.894z"/>
<g style="opacity:0.5;">
	<path style="fill:#FFFFFF;" d="M255.939,459.89c0-2.937,1.625-9.021,3.999-12.785c-1.183-1.867-2.538-3.211-3.999-3.211
		c-4.397,0-7.998,11.6-7.998,15.996c0,4.398,3.601,7.998,7.998,7.998c1.484,0,2.805-0.522,3.999-1.233
		C257.595,465.256,255.939,462.804,255.939,459.89z"/>
</g>
<path style="fill:#1A81F3;" d="M455.892,171.959c0,77.341-88.456,176.998-151.965,231.945c0-2.241-3.6-3.999-7.998-3.999h-7.998
	c0,0,111.974-155.963,111.974-227.946c0-71.982-31.992-137.889-85.339-161.883V9.998C386.869,25.193,455.892,71.502,455.892,171.959
	z"/>
<path style="fill:#E6E9ED;" d="M271.935,403.904c0-2.241-3.601-3.999-7.998-3.999c0,0,55.987-153.964,55.987-235.944
	c0-81.82-23.917-143.728-55.831-159.884c16.402,0.48,33.516,2.32,50.473,5.92v0.078c53.347,23.995,85.339,89.901,85.339,161.883
	c0,71.983-111.974,227.946-111.974,227.946h7.998c-4.396,0-7.998,1.758-7.998,3.999c0-2.241-3.601-3.999-7.998-3.999
	C275.537,399.905,271.935,401.663,271.935,403.904z"/>
<path style="fill:#1A81F3;" d="M191.955,163.96c0-81.82,23.916-143.728,55.826-159.884c2.718-0.077,5.44-0.077,8.158-0.077
	c2.719,0,5.44,0,8.154,0.078c31.914,16.156,55.831,78.063,55.831,159.884c0,81.98-55.987,235.944-55.987,235.944
	c-4.397,0-7.998,1.758-7.998,3.999c0-2.241-3.601-3.999-7.998-3.999C247.941,399.905,191.955,245.941,191.955,163.96z"/>
<path style="fill:#E6E9ED;" d="M191.955,163.96c0,81.98,55.986,235.944,55.986,235.944c-4.397,0-7.998,1.758-7.998,3.999
	c0-2.241-3.601-3.999-7.998-3.999s-7.998,1.758-7.998,3.999c0-0.797-0.48-1.602-1.359-2.241l1.281,0.163
	c-3.362-4.803-111.896-159.005-111.896-229.867c0-71.982,31.992-137.889,85.339-161.883V9.997c16.957-3.601,34.074-5.44,50.469-5.92
	C215.871,20.233,191.955,82.14,191.955,163.96z"/>
<path style="fill:#1A81F3;" d="M222.587,401.663c-1.441-1.039-3.921-1.758-6.639-1.758c-4.397,0-7.998,1.758-7.998,3.999
	C144.446,348.957,55.986,249.3,55.986,171.959c0-100.457,69.023-146.766,141.326-161.961v0.078
	c-53.347,23.995-85.339,89.901-85.339,161.883c0,70.862,108.533,225.064,111.896,229.867L222.587,401.663z"/>
<g style="opacity:0.4;">
	<path style="fill:#FFFFFF;" d="M71.983,171.959c0-85.362,49.875-131.527,109.216-152.827c5.144-3.425,10.482-6.521,16.113-9.056
		V9.998C125.009,25.193,55.986,71.502,55.986,171.959c0,77.341,88.46,176.998,151.965,231.945c0-2.241,3.569-4.054,4.815-3.655
		C144.965,322.587,71.983,247.777,71.983,171.959z"/>
</g>
<g style="opacity:0.2;">
	<path d="M439.896,171.959c0-85.362-49.871-131.527-109.217-152.827c-5.14-3.425-10.481-6.521-16.113-9.056V9.998
		c72.303,15.195,141.326,61.504,141.326,161.961c0,77.341-88.456,176.998-151.965,231.945c0-2.241-3.568-4.054-4.818-3.655
		C366.913,322.587,439.896,247.777,439.896,171.959z"/>
</g>
<g>
	<path style="fill:#3A3847;" d="M303.927,407.903c-1.913,0-3.514-1.343-3.904-3.147c-0.586-0.352-2.008-0.852-4.094-0.852
		c-2.085,0-3.507,0.5-4.092,0.852c-0.391,1.805-1.992,3.147-3.906,3.147c-2.21,0-3.998-1.788-3.998-3.999
		c0-4.632,5.045-7.998,11.996-7.998c6.952,0,11.998,3.366,11.998,7.998C307.927,406.115,306.138,407.903,303.927,407.903z"/>
	<path style="fill:#3A3847;" d="M287.931,407.903c-1.913,0-3.515-1.343-3.904-3.147c-0.586-0.352-2.008-0.852-4.094-0.852
		c-2.085,0-3.507,0.5-4.092,0.852c-0.391,1.805-1.992,3.147-3.906,3.147c-2.21,0-3.999-1.788-3.999-3.999
		c0-4.632,5.046-7.998,11.997-7.998c6.952,0,11.998,3.366,11.998,7.998C291.931,406.115,290.142,407.903,287.931,407.903z"/>
	<path style="fill:#3A3847;" d="M271.935,407.903c-1.913,0-3.515-1.343-3.905-3.147c-0.593-0.352-2.007-0.852-4.093-0.852
		c-2.085,0-3.503,0.5-4.089,0.852c-0.395,1.805-1.995,3.147-3.909,3.147c-2.21,0-3.999-1.788-3.999-3.999
		c0-4.632,5.046-7.998,11.997-7.998s11.997,3.366,11.997,7.998C275.934,406.115,274.146,407.903,271.935,407.903z"/>
	<path style="fill:#3A3847;" d="M255.939,407.903c-1.913,0-3.515-1.343-3.909-3.147c-0.586-0.352-2.003-0.852-4.089-0.852
		c-2.085,0-3.503,0.5-4.089,0.852c-0.395,1.805-1.996,3.147-3.909,3.147c-2.211,0-3.999-1.788-3.999-3.999
		c0-4.632,5.046-7.998,11.997-7.998s11.997,3.366,11.997,7.998C259.938,406.115,258.15,407.903,255.939,407.903z"/>
	<path style="fill:#3A3847;" d="M239.943,407.903c-1.914,0-3.515-1.343-3.909-3.147c-0.586-0.352-2.004-0.852-4.089-0.852
		c-2.086,0-3.503,0.5-4.089,0.852c-0.395,1.805-1.996,3.147-3.909,3.147c-2.211,0-3.999-1.788-3.999-3.999
		c0-4.632,5.046-7.998,11.997-7.998s11.997,3.366,11.997,7.998C243.942,406.115,242.153,407.903,239.943,407.903z"/>
	<path style="fill:#3A3847;" d="M223.947,407.903c-1.91,0-3.503-1.335-3.901-3.124c-0.789-0.453-2.293-0.875-4.097-0.875
		c-2.086,0-3.503,0.5-4.089,0.852c-0.395,1.805-1.996,3.147-3.909,3.147c-2.211,0-3.999-1.788-3.999-3.999
		c0-4.632,5.045-7.998,11.997-7.998c3.491,0,6.764,0.914,8.979,2.516c1.925,1.397,3.019,3.396,3.019,5.482
		C227.946,406.115,226.157,407.903,223.947,407.903z"/>
	<path style="fill:#3A3847;" d="M231.945,431.897c-1.023,0-2.047-0.39-2.827-1.171l-23.995-23.994c-1.562-1.562-1.562-4.094,0-5.655
		c1.562-1.562,4.093-1.562,5.655,0l23.994,23.994c1.562,1.562,1.562,4.093,0,5.655C233.991,431.507,232.968,431.897,231.945,431.897
		z"/>
	<path style="fill:#3A3847;" d="M279.933,431.897c-1.022,0-2.046-0.39-2.827-1.171c-1.562-1.562-1.562-4.094,0-5.655l23.994-23.994
		c1.562-1.562,4.093-1.562,5.655,0s1.562,4.093,0,5.655l-23.994,23.994C281.98,431.507,280.957,431.897,279.933,431.897z"/>
	<path style="fill:#3A3847;" d="M279.933,431.897h-47.988c-2.211,0-3.999-1.788-3.999-3.999c0-2.21,1.788-3.999,3.999-3.999h47.988
		c2.211,0,4,1.789,4,3.999C283.933,430.109,282.144,431.897,279.933,431.897z"/>
	<path style="fill:#3A3847;" d="M279.933,503.88c-2.21,0-3.999-1.789-3.999-3.999v-19.995h-39.99v19.995
		c0,2.21-1.789,3.999-3.999,3.999c-2.211,0-3.999-1.789-3.999-3.999v-23.994c0-2.211,1.788-3.999,3.999-3.999h47.988
		c2.211,0,4,1.788,4,3.999v23.994C283.933,502.091,282.144,503.88,279.933,503.88z"/>
	<path style="fill:#3A3847;" d="M247.941,403.904c-1.633,0-3.167-1.008-3.757-2.632c-2.297-6.312-56.229-155.565-56.229-237.312
		c0-80.195,23.314-145.883,58.017-163.453c0.043-0.02,0.082-0.039,0.121-0.055c2.578-1.309,5.847,0.707,5.847,3.546
		c0,1.613-0.953,2.999-2.327,3.636c-0.016,0.008-0.031,0.016-0.047,0.023c-31.567,16.008-53.612,80.274-53.612,156.303
		c0,80.349,55.189,233.047,55.744,234.578c0.758,2.077-0.316,4.373-2.39,5.123C248.855,403.826,248.394,403.904,247.941,403.904z"/>
	<path style="fill:#3A3847;" d="M224.154,405.974c-1.102,0-2.219-0.422-3.034-1.242c-0.164-0.164-0.395-0.422-0.527-0.609
		c-11.631-16.598-112.618-162.692-112.618-232.164c0-76.595,34.422-141.568,87.698-165.531c2.003-0.914,4.378-0.004,5.287,2.008
		c0.906,2.015,0.008,4.382-2.007,5.288c-50.41,22.674-82.98,84.785-82.98,158.236c0,67.02,99.688,211.185,111.052,227.407
		c1.562,1.562,1.438,3.944-0.125,5.507C226.153,405.623,225.162,405.974,224.154,405.974z"/>
	<path style="fill:#3A3847;" d="M303.927,407.903c-1.116,0-2.233-0.469-3.022-1.382c-1.444-1.672-1.265-4.195,0.406-5.64
		c69.468-60.102,150.582-156.119,150.582-228.922c0-112.254-86.558-147.203-138.147-158.048c-15.879-3.37-32.617-5.334-49.762-5.834
		c-2.683-0.078-5.365-0.078-8.045-0.078c-2.21,0-3.999-1.789-3.999-3.999s1.789-4,3.999-4c2.758,0,5.519,0,8.271,0.078
		c17.629,0.52,34.852,2.538,51.184,6.006c125.72,26.423,144.497,115.27,144.497,165.875c0,75.502-82.605,173.764-153.347,234.969
		C305.787,407.583,304.857,407.903,303.927,407.903z"/>
	<path style="fill:#3A3847;" d="M263.937,403.904c-0.453,0-0.914-0.078-1.367-0.242c-2.073-0.75-3.147-3.046-2.39-5.123
		c0.555-1.531,55.745-154.245,55.745-234.578c0-76.024-22.042-140.287-53.604-156.299c-0.02-0.012-0.039-0.023-0.062-0.031
		c-1.371-0.637-2.32-2.023-2.32-3.632c0-2.839,3.269-4.827,5.858-3.546c0.031,0.02,0.07,0.039,0.109,0.055
		c34.703,17.57,58.018,83.258,58.018,163.453c0,81.747-53.933,231-56.229,237.312C267.109,402.896,265.57,403.904,263.937,403.904z"
		/>
	<path style="fill:#3A3847;" d="M287.931,403.904c-0.812,0-1.624-0.242-2.335-0.75c-1.788-1.289-2.202-3.788-0.914-5.584
		c1.109-1.547,111.224-155.737,111.224-225.611c0-73.451-32.57-135.562-82.98-158.236c-2.015-0.906-2.913-3.272-2.007-5.288
		c0.906-2.019,3.296-2.902,5.288-2.008c53.276,23.963,87.697,88.937,87.697,165.531c0,72.437-108.123,223.869-112.723,230.281
		C290.4,403.326,289.173,403.904,287.931,403.904z"/>
	<path style="fill:#3A3847;" d="M239.943,511.878c-6.615,0-11.997-5.382-11.997-11.997c0-2.21,1.788-3.999,3.999-3.999
		c2.21,0,3.999,1.789,3.999,3.999c0,2.202,1.792,3.999,3.999,3.999c2.21,0,3.999,1.789,3.999,3.999S242.153,511.878,239.943,511.878
		z"/>
	<path style="fill:#3A3847;" d="M271.935,511.878c-2.21,0-3.999-1.789-3.999-3.999s1.789-3.999,3.999-3.999
		c2.203,0,3.999-1.797,3.999-3.999c0-2.21,1.789-3.999,3.999-3.999c2.211,0,4,1.789,4,3.999
		C283.933,506.497,278.551,511.878,271.935,511.878z"/>
	<path style="fill:#3A3847;" d="M271.935,511.878h-31.992c-2.211,0-3.999-1.789-3.999-3.999s1.788-3.999,3.999-3.999h31.992
		c2.211,0,3.999,1.789,3.999,3.999S274.146,511.878,271.935,511.878z"/>
	<path style="fill:#3A3847;" d="M255.939,471.888c-6.615,0-11.997-5.382-11.997-11.998c0-4.654,3.741-19.994,11.997-19.994
		s11.997,15.34,11.997,19.994C267.936,466.506,262.554,471.888,255.939,471.888z M255.939,448.245
		c-1.719,1.938-3.999,8.357-3.999,11.646c0,2.203,1.793,4,3.999,4c2.207,0,3.999-1.797,3.999-4
		C259.938,456.602,257.658,450.182,255.939,448.245z"/>
	<path style="fill:#3A3847;" d="M231.945,471.888c-2.211,0-3.999-1.789-3.999-4v-31.992c0-2.21,1.788-3.999,3.999-3.999
		c2.21,0,3.999,1.789,3.999,3.999v31.992C235.944,470.099,234.155,471.888,231.945,471.888z"/>
	<path style="fill:#3A3847;" d="M279.933,471.888c-2.21,0-3.999-1.789-3.999-4v-31.992c0-2.21,1.789-3.999,3.999-3.999
		c2.211,0,4,1.789,4,3.999v31.992C283.933,470.099,282.144,471.888,279.933,471.888z"/>
	<path style="fill:#3A3847;" d="M247.941,503.88c-2.21,0-3.999-1.789-3.999-3.999v-15.996c0-2.211,1.789-3.999,3.999-3.999
		s3.999,1.788,3.999,3.999v15.996C251.94,502.091,250.151,503.88,247.941,503.88z"/>
	<path style="fill:#3A3847;" d="M263.937,503.88c-2.21,0-3.999-1.789-3.999-3.999v-15.996c0-2.211,1.789-3.999,3.999-3.999
		c2.211,0,3.999,1.788,3.999,3.999v15.996C267.936,502.091,266.148,503.88,263.937,503.88z"/>
	<path style="fill:#3A3847;" d="M271.935,495.882h-31.992c-2.211,0-3.999-1.789-3.999-3.999c0-2.211,1.788-3.999,3.999-3.999h31.992
		c2.211,0,3.999,1.788,3.999,3.999C275.934,494.093,274.146,495.882,271.935,495.882z"/>
	<path style="fill:#3A3847;" d="M207.951,407.903c-0.93,0-1.859-0.32-2.617-0.976c-70.742-61.205-153.347-159.47-153.347-234.968
		c0-50.605,18.773-139.451,144.501-165.875c16.329-3.468,33.551-5.487,51.176-6.006C250.421,0,253.183,0,255.939,0
		c2.211,0,3.999,1.789,3.999,3.999c0,2.25-2.104,3.972-4.112,3.999c-2.644,0-5.288,0-7.932,0.078
		c-17.145,0.5-33.883,2.464-49.75,5.834C146.54,24.755,59.986,59.704,59.986,171.959c0,72.8,81.117,168.82,150.581,228.923
		c1.672,1.444,1.852,3.968,0.406,5.64C210.184,407.434,209.071,407.903,207.951,407.903z"/>
</g>
<g>
</g>
<g>
</g>
<g>
</g>
<g>
</g>
<g>
</g>
<g>
</g>
<g>
</g>
<g>
</g>
<g>
</g>
<g>
</g>
<g>
</g>
<g>
</g>
<g>
</g>
<g>
</g>
<g>
</g>
</svg>
